<svg xmlns="http://www.w3.org/2000/svg" viewBox="0 0 400.09 389.89"><defs><style>.cls-1{opacity:0.04;}.cls-2{fill:none;stroke:#000;stroke-miterlimit:10;stroke-width:2px;}</style></defs><g id="Layer_2" data-name="Layer 2"><g id="Layer_1-2" data-name="Layer 1"><g class="cls-1"><path class="cls-2" d="M114.19,315.26l25.2,26.6a4.06,4.06,0,0,0,3.57,1,6.23,6.23,0,0,0,3.75-1.54L172,317.36a6.11,6.11,0,0,0,1.62-3.55,4,4,0,0,0-.78-3.61l-25.19-26.59a4,4,0,0,0-3.58-1.09,6.06,6.06,0,0,0-3.64,1.54l-25.37,24a6.09,6.09,0,0,0-1.72,3.54,4,4,0,0,0,.88,3.63M95,298.63l37-35.1a22.54,22.54,0,0,1,3-2.23q12.62-7.87,24.37,4.51l31.77,33.55c4.21,4.43,6.47,9.09,6.82,14s-1.67,9.38-6,13.51l-37,35.09c-4.35,4.12-9,5.88-13.82,5.27s-9.38-3.13-13.58-7.56L95.8,326.1q-12.51-13.2-3.18-24.58Z"/><path class="cls-2" d="M129.24,242.25,29.14,337.08a2.34,2.34,0,0,1-3.94-1.76l.55-18.56a9.4,9.4,0,0,1,2.92-6.51l88.65-84a2.34,2.34,0,0,1,3.31.09l8.79,9.28a4.67,4.67,0,0,1-.18,6.61"/><path class="cls-2" d="M106.74,215.1,5,311.54A2.34,2.34,0,0,1,1,309.77l.56-18.55a9.39,9.39,0,0,1,2.91-6.5L89.74,204a7,7,0,0,1,9.91.27l7.18,7.58a2.31,2.31,0,0,1-.09,3.3"/><path class="cls-2" d="M76.75,346.07,55.91,365.81A2.33,2.33,0,0,1,52,364.05l.56-18.55A9.32,9.32,0,0,1,55.44,339l12.78-12.12a2.34,2.34,0,0,1,3.31.09l5.58,5.88a9.36,9.36,0,0,1-.36,13.23"/><path class="cls-2" d="M315.22,114.23l25.2,26.6a4.06,4.06,0,0,0,3.57,1,6.25,6.25,0,0,0,3.75-1.53L373,116.34a6.14,6.14,0,0,0,1.62-3.55,4,4,0,0,0-.78-3.62L348.65,82.58a4,4,0,0,0-3.58-1.09A6.06,6.06,0,0,0,341.43,83l-25.37,24a6.09,6.09,0,0,0-1.72,3.54,4,4,0,0,0,.88,3.63M296,97.6l37-35.1a21.18,21.18,0,0,1,3-2.22q12.62-7.89,24.37,4.5l31.77,33.55c4.21,4.44,6.47,9.09,6.82,14s-1.67,9.38-6,13.52L356,160.9q-6.54,6.18-13.82,5.27t-13.58-7.56l-31.77-33.54q-12.51-13.2-3.18-24.58Z"/><path class="cls-2" d="M330.27,41.22l-100.1,94.83a2.33,2.33,0,0,1-3.94-1.76l.55-18.56a9.4,9.4,0,0,1,2.92-6.51l88.65-84a2.34,2.34,0,0,1,3.31.09l8.79,9.28a4.67,4.67,0,0,1-.18,6.61"/><path class="cls-2" d="M307.77,14.07,206,110.51a2.34,2.34,0,0,1-3.95-1.77l.56-18.54a9.41,9.41,0,0,1,2.91-6.51L290.77,2.92a7,7,0,0,1,9.91.27l7.18,7.58a2.31,2.31,0,0,1-.09,3.3"/><path class="cls-2" d="M277.78,145l-20.84,19.75A2.34,2.34,0,0,1,253,163l.56-18.55a9.32,9.32,0,0,1,2.92-6.51l12.78-12.12a2.35,2.35,0,0,1,3.31.09l5.58,5.89a9.35,9.35,0,0,1-.36,13.22"/></g></g></g></svg>